<mxfile host="app.diagrams.net" modified="2023-05-04T11:26:56.970Z" agent="Mozilla/5.0 (Windows NT 10.0; Win64; x64) AppleWebKit/537.36 (KHTML, like Gecko) Chrome/112.0.0.0 Safari/537.36 Edg/112.0.1722.68" etag="iU3Y5GDoJy1pMe1i4Dht" version="21.2.7" type="github">
  <diagram name="Страница 1" id="w44Oq5WWkVjSfOgMZ7oD">
    <mxGraphModel dx="1251" dy="569" grid="1" gridSize="10" guides="1" tooltips="1" connect="1" arrows="1" fold="1" page="1" pageScale="1" pageWidth="827" pageHeight="1169" math="0" shadow="0">
      <root>
        <mxCell id="0" />
        <mxCell id="1" parent="0" />
        <mxCell id="ZbMpPIGRCYivMsdvwXFk-14" style="edgeStyle=orthogonalEdgeStyle;rounded=0;orthogonalLoop=1;jettySize=auto;html=1;" edge="1" parent="1" source="Dnf6crncQEyeniv7JTVf-1" target="ZbMpPIGRCYivMsdvwXFk-3">
          <mxGeometry relative="1" as="geometry" />
        </mxCell>
        <mxCell id="ZbMpPIGRCYivMsdvwXFk-21" style="edgeStyle=orthogonalEdgeStyle;rounded=0;orthogonalLoop=1;jettySize=auto;html=1;entryX=0;entryY=0.25;entryDx=0;entryDy=0;" edge="1" parent="1" source="Dnf6crncQEyeniv7JTVf-1" target="ZbMpPIGRCYivMsdvwXFk-19">
          <mxGeometry relative="1" as="geometry" />
        </mxCell>
        <mxCell id="ZbMpPIGRCYivMsdvwXFk-27" style="edgeStyle=orthogonalEdgeStyle;rounded=0;orthogonalLoop=1;jettySize=auto;html=1;entryX=0.5;entryY=0;entryDx=0;entryDy=0;" edge="1" parent="1" source="Dnf6crncQEyeniv7JTVf-1" target="ZbMpPIGRCYivMsdvwXFk-26">
          <mxGeometry relative="1" as="geometry" />
        </mxCell>
        <mxCell id="ZbMpPIGRCYivMsdvwXFk-31" style="edgeStyle=orthogonalEdgeStyle;rounded=0;orthogonalLoop=1;jettySize=auto;html=1;entryX=0.75;entryY=0;entryDx=0;entryDy=0;" edge="1" parent="1" source="Dnf6crncQEyeniv7JTVf-1" target="ZbMpPIGRCYivMsdvwXFk-30">
          <mxGeometry relative="1" as="geometry" />
        </mxCell>
        <mxCell id="Dnf6crncQEyeniv7JTVf-1" value="студент" style="shape=umlActor;verticalLabelPosition=bottom;verticalAlign=top;html=1;outlineConnect=0;" parent="1" vertex="1">
          <mxGeometry x="590" y="110" width="30" height="60" as="geometry" />
        </mxCell>
        <mxCell id="ZbMpPIGRCYivMsdvwXFk-6" style="edgeStyle=orthogonalEdgeStyle;rounded=0;orthogonalLoop=1;jettySize=auto;html=1;" edge="1" parent="1" source="Dnf6crncQEyeniv7JTVf-2" target="ZbMpPIGRCYivMsdvwXFk-2">
          <mxGeometry relative="1" as="geometry" />
        </mxCell>
        <mxCell id="ZbMpPIGRCYivMsdvwXFk-9" style="edgeStyle=orthogonalEdgeStyle;rounded=0;orthogonalLoop=1;jettySize=auto;html=1;entryX=0;entryY=0.75;entryDx=0;entryDy=0;" edge="1" parent="1" source="Dnf6crncQEyeniv7JTVf-2" target="ZbMpPIGRCYivMsdvwXFk-5">
          <mxGeometry relative="1" as="geometry" />
        </mxCell>
        <mxCell id="ZbMpPIGRCYivMsdvwXFk-16" style="edgeStyle=orthogonalEdgeStyle;rounded=0;orthogonalLoop=1;jettySize=auto;html=1;" edge="1" parent="1" source="Dnf6crncQEyeniv7JTVf-2" target="ZbMpPIGRCYivMsdvwXFk-15">
          <mxGeometry relative="1" as="geometry" />
        </mxCell>
        <mxCell id="ZbMpPIGRCYivMsdvwXFk-25" style="edgeStyle=orthogonalEdgeStyle;rounded=0;orthogonalLoop=1;jettySize=auto;html=1;" edge="1" parent="1" source="Dnf6crncQEyeniv7JTVf-2" target="ZbMpPIGRCYivMsdvwXFk-24">
          <mxGeometry relative="1" as="geometry" />
        </mxCell>
        <mxCell id="ZbMpPIGRCYivMsdvwXFk-29" style="edgeStyle=orthogonalEdgeStyle;rounded=0;orthogonalLoop=1;jettySize=auto;html=1;" edge="1" parent="1" source="Dnf6crncQEyeniv7JTVf-2" target="ZbMpPIGRCYivMsdvwXFk-28">
          <mxGeometry relative="1" as="geometry" />
        </mxCell>
        <mxCell id="Dnf6crncQEyeniv7JTVf-2" value="администратор" style="shape=umlActor;verticalLabelPosition=bottom;verticalAlign=top;html=1;outlineConnect=0;" parent="1" vertex="1">
          <mxGeometry x="100" y="390" width="30" height="60" as="geometry" />
        </mxCell>
        <mxCell id="ZbMpPIGRCYivMsdvwXFk-8" style="edgeStyle=orthogonalEdgeStyle;rounded=0;orthogonalLoop=1;jettySize=auto;html=1;" edge="1" parent="1" source="Dnf6crncQEyeniv7JTVf-3" target="ZbMpPIGRCYivMsdvwXFk-4">
          <mxGeometry relative="1" as="geometry" />
        </mxCell>
        <mxCell id="ZbMpPIGRCYivMsdvwXFk-18" style="edgeStyle=orthogonalEdgeStyle;rounded=0;orthogonalLoop=1;jettySize=auto;html=1;entryX=0.5;entryY=1;entryDx=0;entryDy=0;" edge="1" parent="1" source="Dnf6crncQEyeniv7JTVf-3" target="ZbMpPIGRCYivMsdvwXFk-17">
          <mxGeometry relative="1" as="geometry" />
        </mxCell>
        <mxCell id="ZbMpPIGRCYivMsdvwXFk-23" style="edgeStyle=orthogonalEdgeStyle;rounded=0;orthogonalLoop=1;jettySize=auto;html=1;entryX=0.408;entryY=0.978;entryDx=0;entryDy=0;entryPerimeter=0;" edge="1" parent="1" source="Dnf6crncQEyeniv7JTVf-3" target="ZbMpPIGRCYivMsdvwXFk-22">
          <mxGeometry relative="1" as="geometry" />
        </mxCell>
        <mxCell id="ZbMpPIGRCYivMsdvwXFk-33" style="edgeStyle=orthogonalEdgeStyle;rounded=0;orthogonalLoop=1;jettySize=auto;html=1;" edge="1" parent="1" source="Dnf6crncQEyeniv7JTVf-3" target="ZbMpPIGRCYivMsdvwXFk-32">
          <mxGeometry relative="1" as="geometry" />
        </mxCell>
        <mxCell id="Dnf6crncQEyeniv7JTVf-3" value="преподователь" style="shape=umlActor;verticalLabelPosition=bottom;verticalAlign=top;html=1;outlineConnect=0;" parent="1" vertex="1">
          <mxGeometry x="110" y="150" width="30" height="60" as="geometry" />
        </mxCell>
        <mxCell id="ZbMpPIGRCYivMsdvwXFk-2" value="аутентификация пользователя" style="rounded=1;whiteSpace=wrap;html=1;" vertex="1" parent="1">
          <mxGeometry x="190" y="240" width="120" height="60" as="geometry" />
        </mxCell>
        <mxCell id="ZbMpPIGRCYivMsdvwXFk-3" value="получение стипендии" style="rounded=1;whiteSpace=wrap;html=1;" vertex="1" parent="1">
          <mxGeometry x="620" y="330" width="120" height="60" as="geometry" />
        </mxCell>
        <mxCell id="ZbMpPIGRCYivMsdvwXFk-4" value="обеспечение информацией" style="rounded=1;whiteSpace=wrap;html=1;" vertex="1" parent="1">
          <mxGeometry x="330" y="110" width="120" height="60" as="geometry" />
        </mxCell>
        <mxCell id="ZbMpPIGRCYivMsdvwXFk-5" value="мониторинг базы данных" style="rounded=1;whiteSpace=wrap;html=1;" vertex="1" parent="1">
          <mxGeometry x="250" y="460" width="120" height="60" as="geometry" />
        </mxCell>
        <mxCell id="ZbMpPIGRCYivMsdvwXFk-15" value="перевод с курса на курс" style="rounded=1;whiteSpace=wrap;html=1;" vertex="1" parent="1">
          <mxGeometry x="310" y="350" width="120" height="60" as="geometry" />
        </mxCell>
        <mxCell id="ZbMpPIGRCYivMsdvwXFk-17" value="управление курсами" style="rounded=1;whiteSpace=wrap;html=1;" vertex="1" parent="1">
          <mxGeometry x="140" y="70" width="120" height="60" as="geometry" />
        </mxCell>
        <mxCell id="ZbMpPIGRCYivMsdvwXFk-19" value="сдача квалифов" style="rounded=1;whiteSpace=wrap;html=1;" vertex="1" parent="1">
          <mxGeometry x="680" y="150" width="120" height="60" as="geometry" />
        </mxCell>
        <mxCell id="ZbMpPIGRCYivMsdvwXFk-22" value="заполнение журнала посещаемости" style="rounded=1;whiteSpace=wrap;html=1;" vertex="1" parent="1">
          <mxGeometry y="60" width="120" height="60" as="geometry" />
        </mxCell>
        <mxCell id="ZbMpPIGRCYivMsdvwXFk-24" value="регистрация студента" style="rounded=1;whiteSpace=wrap;html=1;" vertex="1" parent="1">
          <mxGeometry x="30" y="270" width="160" height="60" as="geometry" />
        </mxCell>
        <mxCell id="ZbMpPIGRCYivMsdvwXFk-26" value="Групповая работа&amp;nbsp;" style="rounded=1;whiteSpace=wrap;html=1;" vertex="1" parent="1">
          <mxGeometry x="430" y="240" width="120" height="60" as="geometry" />
        </mxCell>
        <mxCell id="ZbMpPIGRCYivMsdvwXFk-28" value="администрирование системы" style="rounded=0;whiteSpace=wrap;html=1;" vertex="1" parent="1">
          <mxGeometry x="50" y="540" width="120" height="60" as="geometry" />
        </mxCell>
        <mxCell id="ZbMpPIGRCYivMsdvwXFk-30" value="плата за обучение" style="rounded=1;whiteSpace=wrap;html=1;" vertex="1" parent="1">
          <mxGeometry x="470" y="330" width="120" height="60" as="geometry" />
        </mxCell>
        <mxCell id="ZbMpPIGRCYivMsdvwXFk-32" value="оцена результатов" style="rounded=1;whiteSpace=wrap;html=1;" vertex="1" parent="1">
          <mxGeometry x="250" y="170" width="120" height="60" as="geometry" />
        </mxCell>
      </root>
    </mxGraphModel>
  </diagram>
</mxfile>
